<?xml version="1.0" encoding="UTF-8"?>
<!-- Generator: https://ezgif.com/png-to-svg -->
<svg version="1.1" xmlns="http://www.w3.org/2000/svg" width="512" height="512">
<path d="M0 0 C13.89 8.28 22.66 27.1 26.94 42.12 C28.61 49.25 29.94 56.68 29 64 C27.19 66.63 27.19 66.63 25 68 C24.01 68 23.02 68 22 68 C21.55 71.08 21.14 74.16 20.75 77.25 C20.62 78.12 20.49 79 20.36 79.89 C20.06 82.32 19.84 84.56 20 87 C21.78 89.45 21.78 89.45 24 91 C25.99 101.62 17.89 112.3 12.28 120.77 C9.99 124.01 7.58 126.99 5 130 C5.51 130.33 6.02 130.66 6.54 131 C13.72 135.96 19.06 142.22 20.76 150.97 C22.26 163.51 19.02 173.75 11.31 183.69 C4.55 191.11 -4.28 194.37 -14 196 C-15.32 196 -16.64 196 -18 196 C-18.4 197.31 -18.4 197.31 -18.82 198.66 C-23.84 212.85 -34.79 225.02 -45.25 235.56 C-45.82 236.13 -46.38 236.71 -46.97 237.29 C-51.48 241.73 -51.48 241.73 -53.95 243.01 C-56.16 244.16 -57.46 245.02 -59 247 C-60.02 251.77 -59.98 256.45 -59.94 261.31 C-59.95 262.63 -59.97 263.94 -59.99 265.29 C-60.02 268.53 -60.02 271.76 -60 275 C-59.3 275.11 -58.61 275.21 -57.89 275.32 C-49.59 276.64 -41.43 278.4 -33.25 280.3 C-31.86 280.62 -30.47 280.94 -29.08 281.27 C-26.19 281.94 -23.3 282.61 -20.41 283.28 C-16.74 284.14 -13.07 284.99 -9.4 285.83 C-6.53 286.48 -3.67 287.15 -0.81 287.82 C0.54 288.14 1.89 288.45 3.25 288.75 C25.84 293.9 41.25 303.75 53.76 323.47 C59.99 333.68 64.56 344.54 68 356 C68.82 356.03 69.64 356.05 70.49 356.08 C82.16 356.67 90.96 359.19 99 368 C105.09 375.87 106.3 383.39 106.27 393.11 C106.28 394.59 106.28 394.59 106.29 396.11 C106.3 399.37 106.3 402.64 106.3 405.9 C106.3 408.18 106.31 410.45 106.31 412.73 C106.32 417.5 106.32 422.27 106.32 427.04 C106.31 433.14 106.33 439.24 106.35 445.33 C106.36 450.04 106.37 454.74 106.36 459.44 C106.36 461.69 106.37 463.94 106.38 466.19 C106.39 469.34 106.38 472.49 106.37 475.63 C106.38 476.55 106.39 477.47 106.4 478.42 C106.31 488.73 103.23 496.59 96 504 C89.28 509.47 83 512.25 74.23 512.26 C73.57 512.26 72.91 512.26 72.23 512.27 C70.03 512.28 67.82 512.27 65.62 512.27 C64.02 512.27 62.42 512.28 60.82 512.28 C56.43 512.29 52.04 512.29 47.65 512.29 C42.91 512.29 38.17 512.3 33.44 512.31 C24.16 512.33 14.88 512.33 5.6 512.33 C-1.94 512.34 -9.48 512.34 -17.03 512.35 C-38.41 512.36 -59.8 512.37 -81.18 512.37 C-82.33 512.37 -83.49 512.37 -84.67 512.37 C-86.41 512.37 -86.41 512.37 -88.17 512.37 C-106.88 512.37 -125.59 512.39 -144.29 512.42 C-163.5 512.45 -182.71 512.46 -201.92 512.46 C-212.7 512.46 -223.49 512.46 -234.27 512.48 C-243.45 512.5 -252.63 512.51 -261.82 512.49 C-266.5 512.49 -271.18 512.49 -275.87 512.5 C-280.16 512.52 -284.45 512.52 -288.74 512.5 C-290.29 512.5 -291.84 512.5 -293.39 512.51 C-305.12 512.59 -314.47 511.22 -323.25 502.92 C-330.65 494.81 -332.3 486.57 -332.27 475.89 C-332.28 474.9 -332.28 473.91 -332.29 472.89 C-332.3 469.63 -332.3 466.36 -332.3 463.1 C-332.3 460.82 -332.31 458.55 -332.31 456.27 C-332.32 451.5 -332.32 446.73 -332.32 441.96 C-332.31 435.86 -332.33 429.76 -332.35 423.67 C-332.36 418.96 -332.37 414.26 -332.36 409.56 C-332.36 407.31 -332.37 405.06 -332.38 402.81 C-332.39 399.66 -332.38 396.51 -332.37 393.37 C-332.38 392.45 -332.39 391.53 -332.4 390.58 C-332.31 380.27 -329.23 372.41 -322 365 C-315.24 359.5 -308.87 356.91 -300.12 356.38 C-298.4 356.26 -298.4 356.26 -296.63 356.15 C-295.76 356.1 -294.9 356.05 -294 356 C-293.66 354.95 -293.32 353.89 -292.97 352.81 C-288.09 338.12 -281.71 325.15 -272 313 C-271.36 312.2 -270.73 311.4 -270.07 310.57 C-258.16 296.37 -242.36 291.74 -224.96 287.79 C-223.35 287.42 -221.74 287.05 -220.13 286.67 C-216.78 285.89 -213.42 285.12 -210.07 284.36 C-205.77 283.38 -201.47 282.39 -197.18 281.39 C-193.07 280.44 -188.95 279.49 -184.84 278.54 C-183.67 278.27 -183.67 278.27 -182.47 278 C-180.26 277.49 -178.06 276.98 -175.85 276.48 C-173.97 276.05 -173.97 276.05 -172.05 275.61 C-169 275 -169 275 -166 275 C-165.88 270.5 -165.87 266 -165.88 261.5 C-165.84 260.23 -165.8 258.96 -165.77 257.66 C-165.75 250.55 -165.75 250.55 -169.08 244.52 C-171.63 242.5 -174.25 240.75 -177 239 C-190.07 227.91 -200.9 213.59 -208 198 C-208 197.34 -208 196.68 -208 196 C-208.61 195.97 -209.21 195.95 -209.84 195.92 C-220.55 195.2 -229.26 191.55 -237 184 C-244.43 174.84 -248.03 164.83 -247 153 C-245.3 143.72 -241.25 137.03 -233.5 131.62 C-227.52 127.95 -223.02 126.92 -216 127 C-216.01 125.87 -216.02 124.73 -216.03 123.57 C-216.07 119.29 -216.09 115.01 -216.11 110.73 C-216.12 108.9 -216.13 107.06 -216.15 105.22 C-216.37 81.99 -214.97 57.83 -198.19 40 C-189.81 32.35 -179.26 28.41 -168.12 27.12 C-163.1 26.5 -163.1 26.5 -159.25 23.25 C-158.14 21.64 -158.14 21.64 -157 20 C-141.68 7.66 -123.81 7.27 -104.89 9.22 C-95.97 10.31 -87.12 11.9 -78.27 13.45 C-55.81 17.23 -32.59 16.36 -13.25 3.19 C-8.35 -0.01 -5.8 -1.33 0 0 Z " fill="#171517" transform="translate(369,0)"/>
<path d="M0 0 C3.08 -0.17 6.16 -0.28 9.25 -0.38 C10.12 -0.43 11 -0.48 11.89 -0.53 C14.4 -0.58 16.56 -0.57 19 0 C21.55 2.96 21.55 2.96 23 6 C24.89 7.89 28.2 7.13 30.71 7.13 C31.77 7.13 31.77 7.13 32.86 7.14 C35.26 7.14 37.65 7.14 40.05 7.14 C41.76 7.14 43.47 7.15 45.18 7.15 C48.88 7.16 52.58 7.17 56.27 7.17 C62.12 7.17 67.96 7.19 73.81 7.21 C75.81 7.22 77.81 7.22 79.81 7.23 C80.81 7.23 81.81 7.24 82.84 7.24 C96.46 7.28 110.07 7.31 123.68 7.33 C132.86 7.33 142.03 7.36 151.21 7.4 C156.06 7.42 160.92 7.43 165.78 7.42 C170.35 7.42 174.92 7.43 179.49 7.46 C181.17 7.47 182.84 7.47 184.52 7.46 C202.33 7.39 202.33 7.39 208.84 13.82 C209.2 14.39 209.56 14.97 209.94 15.56 C210.32 16.14 210.7 16.72 211.09 17.32 C213.47 21.73 213.16 26.15 213.18 31.01 C213.18 31.93 213.19 32.85 213.2 33.81 C213.22 36.86 213.23 39.92 213.24 42.98 C213.24 44.02 213.25 45.07 213.25 46.14 C213.27 51.68 213.29 57.21 213.3 62.75 C213.31 68.45 213.34 74.16 213.38 79.87 C213.41 84.26 213.41 88.66 213.42 93.05 C213.42 95.16 213.43 97.26 213.45 99.36 C213.48 102.31 213.48 105.26 213.47 108.21 C213.49 109.5 213.49 109.5 213.51 110.82 C213.45 117.97 211.72 124.28 206.56 129.44 C201.77 132.36 198.07 133.25 192.46 133.26 C191.81 133.26 191.16 133.27 190.5 133.27 C188.33 133.28 186.16 133.28 183.99 133.27 C182.42 133.28 180.85 133.28 179.28 133.29 C174.96 133.3 170.64 133.31 166.33 133.31 C161.67 133.31 157.02 133.32 152.36 133.33 C142.18 133.35 132 133.36 121.82 133.37 C115.47 133.37 109.11 133.38 102.76 133.38 C85.16 133.4 67.57 133.42 49.98 133.42 C48.85 133.42 47.72 133.42 46.56 133.42 C44.28 133.42 42 133.42 39.72 133.42 C38.58 133.43 37.45 133.43 36.28 133.43 C34.58 133.43 34.58 133.43 32.84 133.43 C14.46 133.43 -3.93 133.46 -22.32 133.49 C-41.2 133.53 -60.07 133.55 -78.95 133.55 C-89.55 133.55 -100.15 133.56 -110.75 133.59 C-119.77 133.61 -128.8 133.62 -137.82 133.61 C-142.42 133.6 -147.03 133.6 -151.63 133.62 C-155.85 133.64 -160.07 133.64 -164.28 133.62 C-165.81 133.62 -167.33 133.62 -168.85 133.64 C-182.57 133.76 -182.57 133.76 -188.55 129.43 C-193.62 124.43 -195.11 118.56 -195.17 111.62 C-195.17 110.75 -195.17 109.87 -195.18 108.97 C-195.18 108.05 -195.19 107.13 -195.2 106.17 C-195.22 103.11 -195.23 100.05 -195.24 96.99 C-195.24 95.94 -195.25 94.9 -195.25 93.82 C-195.27 88.28 -195.29 82.74 -195.3 77.2 C-195.31 71.48 -195.34 65.77 -195.38 60.05 C-195.41 55.65 -195.41 51.25 -195.42 46.85 C-195.42 44.75 -195.43 42.64 -195.45 40.53 C-195.48 37.58 -195.48 34.63 -195.47 31.67 C-195.48 30.81 -195.5 29.94 -195.51 29.05 C-195.46 23.25 -194.26 18.86 -191 14 C-185.8 9.06 -181.97 7.75 -174.83 7.75 C-174.1 7.75 -173.38 7.74 -172.63 7.74 C-170.21 7.73 -167.79 7.74 -165.36 7.74 C-163.62 7.74 -161.89 7.74 -160.15 7.73 C-156.4 7.73 -152.66 7.72 -148.92 7.73 C-143 7.73 -137.09 7.71 -131.17 7.7 C-114.35 7.65 -97.53 7.63 -80.7 7.62 C-71.41 7.62 -62.12 7.6 -52.83 7.56 C-46.95 7.54 -41.07 7.54 -35.18 7.55 C-31.53 7.55 -27.87 7.54 -24.21 7.52 C-22.51 7.52 -20.82 7.52 -19.12 7.53 C-16.8 7.54 -14.49 7.53 -12.17 7.51 C-10.23 7.5 -10.23 7.5 -8.25 7.5 C-4.44 6.91 -3.28 6.05 -1 3 C-0.67 2.01 -0.34 1.02 0 0 Z " fill="#98E4FA" transform="translate(247,364)"/>
<path d="M0 0 C3.94 1.48 7.7 3.28 11.48 5.12 C28.22 13.24 44.85 18.06 63 22 C63.9 22.19 64.79 22.39 65.72 22.59 C81.4 25.88 97.31 27.25 113.24 28.69 C114.12 28.77 114.99 28.85 115.9 28.94 C117.56 29.09 119.22 29.23 120.88 29.38 C124.35 29.69 127.64 30.1 131 31 C131.05 35.13 131.09 39.25 131.11 43.38 C131.12 44.78 131.13 46.18 131.15 47.58 C131.46 73.08 119.82 93.58 102.66 111.75 C91.49 123.16 78.74 130.98 64 137 C63.07 137.38 62.14 137.77 61.18 138.16 C48.65 142.38 32.89 141.51 21 136 C19.29 135.24 19.29 135.24 17.55 134.46 C5.47 128.75 -4.32 121.11 -14 112 C-14.67 111.41 -15.33 110.82 -16.02 110.21 C-29.26 97.97 -40.52 78.94 -43 61 C-43.08 58.55 -43.11 56.09 -43.1 53.63 C-43.1 52.95 -43.09 52.27 -43.09 51.57 C-43.09 49.42 -43.08 47.27 -43.06 45.12 C-43.06 43.66 -43.05 42.19 -43.05 40.73 C-43.04 37.15 -43.02 33.58 -43 30 C-42.29 29.89 -41.58 29.78 -40.84 29.67 C-26.96 27.39 -14.9 21.14 -6.45 9.6 C-4.22 6.45 -2.09 3.24 0 0 Z " fill="#FCCE9F" transform="translate(212,111)"/>
<path d="M0 0 C2.22 2.12 2.22 2.12 4.5 5 C5.13 5.79 5.13 5.79 5.78 6.59 C7.2 8.38 8.6 10.19 10 12 C10.51 12.66 11.01 13.31 11.53 13.99 C13.15 16.1 14.76 18.2 16.38 20.31 C16.92 21.03 17.47 21.74 18.03 22.47 C20.79 26.09 23.54 29.73 26.25 33.39 C27.29 34.76 28.33 36.13 29.38 37.5 C29.84 38.14 30.3 38.78 30.78 39.44 C33.01 42.33 34.76 43.9 38.17 45.24 C43.88 44.88 48 42.38 52.94 39.62 C54.45 38.81 54.45 38.81 56 37.98 C60.68 35.45 65.31 32.84 69.89 30.12 C70.61 29.7 71.33 29.28 72.08 28.84 C73.41 28.05 74.73 27.24 76.04 26.42 C77.82 25.35 77.82 25.35 81 24 C84.9 25.22 88.46 27.2 92.08 29.08 C93.24 29.68 94.4 30.29 95.6 30.91 C96.2 31.22 96.8 31.53 97.42 31.86 C99.23 32.8 101.04 33.74 102.86 34.68 C104.02 35.29 105.19 35.89 106.39 36.52 C107.53 37.11 108.66 37.7 109.83 38.3 C112.6 39.78 115.25 41.37 117.92 43.01 C120.89 44.65 122.16 45.01 125.68 45.25 C130.3 43.51 132.29 40.83 135.19 36.94 C135.74 36.22 136.3 35.51 136.87 34.77 C138.6 32.53 140.31 30.27 142 28 C142.78 26.95 142.78 26.95 143.59 25.89 C144.6 24.53 145.62 23.17 146.63 21.81 C148.6 19.18 150.57 16.55 152.55 13.93 C153.52 12.63 154.5 11.33 155.46 10.02 C156.86 8.14 158.3 6.29 159.75 4.44 C160.16 3.87 160.57 3.3 161 2.72 C162.23 1.18 162.23 1.18 165 -1 C170.64 -0.62 176.06 0.58 181.56 1.89 C182.35 2.08 183.14 2.26 183.95 2.46 C185.61 2.85 187.26 3.25 188.92 3.65 C191.42 4.25 193.94 4.83 196.45 5.41 C212.2 9.14 212.2 9.14 219 14 C220.35 14.95 220.35 14.95 221.73 15.93 C224.52 18.47 226.92 21.23 229.25 24.19 C229.72 24.79 230.19 25.39 230.68 26 C237.1 34.43 246 47.13 246 58 C245.23 58 244.47 58 243.68 58.01 C225.08 58.07 206.48 58.14 187.87 58.24 C178.88 58.28 169.88 58.32 160.89 58.35 C153.05 58.37 145.21 58.4 137.37 58.45 C133.22 58.47 129.06 58.49 124.91 58.5 C121.01 58.5 117.1 58.52 113.19 58.55 C111.76 58.56 110.32 58.57 108.89 58.57 C106.93 58.56 104.97 58.58 103.02 58.6 C101.92 58.61 100.83 58.61 99.7 58.62 C96.98 58.78 96.98 58.78 95.2 60.39 C93.87 62.17 92.91 63.97 92 66 C88.89 65.98 85.79 65.9 82.69 65.81 C81.81 65.81 80.93 65.8 80.02 65.79 C77.58 65.71 75.37 65.59 73 65 C71.02 62.51 71.02 62.51 70 60 C67.28 58.64 65.12 58.86 62.06 58.84 C60.17 58.83 60.17 58.83 58.23 58.81 C56.82 58.81 55.41 58.8 54 58.79 C52.53 58.79 51.05 58.78 49.57 58.76 C45.55 58.74 41.53 58.72 37.51 58.7 C33.31 58.67 29.11 58.65 24.91 58.62 C16.96 58.57 9 58.53 1.05 58.48 C-8.01 58.43 -17.06 58.38 -26.11 58.32 C-44.74 58.21 -63.37 58.1 -82 58 C-80.96 51.42 -80.96 51.42 -79.4 48.3 C-79.08 47.65 -78.75 47.01 -78.42 46.34 C-78.08 45.67 -77.73 45 -77.38 44.31 C-77.02 43.61 -76.66 42.91 -76.29 42.19 C-69.24 28.55 -60.96 14.86 -46.09 8.82 C-42.42 7.72 -38.73 6.84 -35 6 C-32.82 5.49 -30.64 4.98 -28.46 4.46 C-22.85 3.15 -17.24 1.87 -11.62 0.6 C-10.01 0.23 -8.4 -0.16 -6.81 -0.59 C-4.17 -1.19 -2.56 -0.88 0 0 Z " fill="#544D55" transform="translate(174,299)"/>
<path d="M0 0 C5.44 2.06 7.44 5.65 10.62 10.38 C11.47 11.6 12.31 12.82 13.16 14.04 C14.51 15.99 15.86 17.95 17.19 19.91 C21.88 26.82 26.76 33.59 31.62 40.38 C31.63 39.31 31.64 38.24 31.65 37.13 C31.69 33.16 31.76 29.19 31.83 25.21 C31.86 23.5 31.88 21.78 31.9 20.06 C31.92 17.58 31.96 15.11 32.02 12.64 C32.02 11.87 32.02 11.11 32.02 10.32 C32.12 6.8 32.35 4.75 34.48 1.89 C36.62 0.38 36.62 0.38 39.56 -0.19 C42.69 0.39 44.39 1.11 46.58 3.44 C49.08 8.07 48.28 13.92 48.22 19.03 C48.22 20.38 48.22 21.73 48.22 23.08 C48.22 25.9 48.2 28.72 48.17 31.54 C48.13 35.15 48.12 38.75 48.13 42.36 C48.13 45.15 48.12 47.93 48.1 50.71 C48.09 52.69 48.09 54.66 48.09 56.64 C48.08 57.84 48.06 59.05 48.04 60.29 C48.04 61.34 48.03 62.4 48.02 63.49 C47.57 66.8 46.59 68.7 44.62 71.38 C41.49 72.94 39.09 72.73 35.62 72.38 C30.96 68.46 27.8 63.53 24.44 58.5 C23.88 57.67 23.31 56.84 22.73 55.98 C21.02 53.45 19.32 50.91 17.62 48.38 C17.11 47.6 16.59 46.82 16.05 46.02 C13.23 41.82 10.42 37.6 7.62 33.38 C7.62 34.93 7.62 34.93 7.61 36.51 C7.59 40.36 7.54 44.21 7.47 48.05 C7.45 49.72 7.43 51.38 7.43 53.04 C7.42 55.44 7.38 57.83 7.33 60.23 C7.34 61.34 7.34 61.34 7.34 62.47 C7.23 66.4 6.73 68.23 4.31 71.38 C1.62 73.38 1.62 73.38 -2 73.44 C-5.77 72.25 -6.48 71.72 -8.38 68.38 C-8.77 65.54 -8.77 65.54 -8.79 62.22 C-8.81 60.97 -8.83 59.73 -8.84 58.44 C-8.84 57.09 -8.84 55.73 -8.84 54.38 C-8.85 52.98 -8.86 51.59 -8.87 50.19 C-8.88 47.27 -8.88 44.35 -8.88 41.43 C-8.87 37.69 -8.9 33.96 -8.94 30.22 C-8.97 27.34 -8.97 24.46 -8.97 21.58 C-8.97 20.2 -8.98 18.83 -9 17.45 C-9.13 5.33 -9.13 5.33 -6.05 2.02 C-3.38 0.38 -3.38 0.38 0 0 Z " fill="#010202" transform="translate(321.375,397.625)"/>
<path d="M0 0 C1.21 0.48 2.41 0.96 3.66 1.46 C5.27 2.1 6.89 2.74 8.5 3.38 C9.69 3.85 9.69 3.85 10.9 4.34 C19.71 7.8 27.24 9.37 36.75 9.31 C37.73 9.31 38.71 9.3 39.71 9.3 C46.87 9.18 53.23 8.44 60 6 C60.67 5.76 61.35 5.52 62.04 5.27 C66.72 3.58 71.37 1.82 76 0 C77.22 7.28 78.13 14.82 76 22 C71.96 27.66 65.61 30.93 59.7 34.36 C56.96 36.03 54.45 37.85 51.91 39.81 C51.1 40.43 50.3 41.05 49.47 41.68 C47.93 42.87 46.4 44.07 44.88 45.27 C39.73 49.09 39.73 49.09 36.44 48.68 C32.44 45.93 28.56 43.07 24.74 40.06 C20.94 37.1 17.16 34.45 12.95 32.09 C0.87 25.03 0.87 25.03 -0.78 19.28 C-1.54 12.8 -1.01 6.43 0 0 Z " fill="#FCBB84" transform="translate(218,256)"/>
<path d="M0 0 C6.84 -0.5 12.4 -0.28 18 4 C23.41 9.93 24.15 15.12 24.18 23.01 C24.18 23.93 24.19 24.85 24.2 25.81 C24.22 28.86 24.23 31.92 24.24 34.98 C24.24 36.02 24.25 37.07 24.25 38.14 C24.27 43.68 24.29 49.21 24.3 54.75 C24.31 60.45 24.34 66.16 24.38 71.87 C24.41 76.26 24.41 80.66 24.42 85.05 C24.42 87.16 24.43 89.26 24.45 91.36 C24.48 94.31 24.48 97.26 24.47 100.21 C24.48 101.07 24.5 101.93 24.51 102.82 C24.45 109.97 22.72 116.28 17.56 121.44 C11.56 125.1 6.9 125.2 0 125 C0.42 124.4 0.85 123.8 1.29 123.18 C7.65 112.68 6.86 102.01 6.76 90.09 C6.76 87.86 6.77 85.64 6.77 83.42 C6.78 78.77 6.76 74.13 6.73 69.49 C6.69 63.56 6.7 57.64 6.72 51.71 C6.74 47.12 6.73 42.54 6.71 37.95 C6.7 35.77 6.7 33.58 6.71 31.4 C6.72 28.33 6.7 25.28 6.66 22.22 C6.67 21.33 6.68 20.44 6.69 19.52 C6.56 12.69 4.39 7.87 1 2 C0.67 1.34 0.34 0.68 0 0 Z " fill="#5FD5F5" transform="translate(436,372)"/>
<path d="M0 0 C12.22 10.74 17.65 26.7 18.75 42.48 C18.98 44.76 19.38 46.81 20 49 C22.31 49.66 24.62 50.32 27 51 C26.69 53.79 26.38 56.58 26.06 59.38 C25.98 60.17 25.89 60.96 25.8 61.78 C25.11 67.77 25.11 67.77 24 70 C22.33 70.4 22.33 70.4 20.62 70.81 C16.24 72.25 16.05 73.02 14 77 C13.15 78.84 12.29 80.68 11.45 82.52 C6.5 93.15 -0.49 103.47 -11.02 109.3 C-15.45 110.87 -19.98 110.92 -24.27 108.97 C-24.84 108.65 -25.41 108.33 -26 108 C-25.27 107.45 -24.53 106.9 -23.78 106.34 C-9.74 94.51 -2.24 73.86 0 56 C1.11 40.13 -0.8 25.3 -8.05 11 C-9 9 -9 9 -9 7 C-9.66 6.67 -10.32 6.34 -11 6 C-7.37 4.02 -3.74 2.04 0 0 Z " fill="#423E42" transform="translate(364,17)"/>
<path d="M0 0 C3.38 1.9 4.83 2.93 7 6.19 C6.78 12.29 6.78 12.29 4.31 15.12 C1.26 16.53 -0.67 16.59 -4 16.19 C-4.85 15.69 -5.69 15.2 -6.56 14.69 C-11.98 12.32 -17.19 12.33 -23 13.19 C-28.47 15.54 -32.06 19.61 -34.37 25.05 C-36.1 30.92 -35.64 35.54 -32.88 41 C-29.82 45.97 -26.57 48.33 -21 50.19 C-15.24 50.76 -10.99 50.37 -6 47.19 C-5.15 46.47 -4.31 45.74 -3.44 45 C-1 43.19 -1 43.19 1.5 42.62 C5.29 43.48 6.75 45.07 9 48.19 C9.38 51.5 9.38 51.5 8 55.19 C2.17 62.16 -4.13 65.52 -13.04 66.53 C-23.12 67.01 -31.59 64.28 -39.44 57.88 C-47.1 50.5 -50.94 41.41 -51.5 30.81 C-51.2 21.7 -47.2 13.48 -40.96 6.94 C-29.46 -3.33 -14.32 -7 0 0 Z " fill="#030404" transform="translate(125,402.8125)"/>
<path d="M0 0 C1.22 -0 2.45 -0 3.71 -0.01 C5.62 0.03 5.62 0.03 7.56 0.07 C8.83 0.06 10.1 0.04 11.41 0.03 C20.74 0.11 20.74 0.11 24.43 2.45 C26.56 4.63 26.56 4.63 27.19 8.13 C26.56 11.63 26.56 11.63 24.61 13.83 C20.4 16.31 17.03 16.08 12.25 15.88 C11.41 15.86 10.58 15.84 9.72 15.82 C7.66 15.78 5.61 15.71 3.56 15.63 C3.56 19.59 3.56 23.55 3.56 27.63 C4.67 27.61 5.78 27.58 6.92 27.56 C8.39 27.54 9.85 27.52 11.31 27.5 C12.41 27.48 12.41 27.48 13.52 27.45 C20.46 27.39 20.46 27.39 23.56 29.63 C25.07 32.65 24.74 35.3 24.56 38.63 C22.56 41.63 22.56 41.63 19.56 42.63 C16.82 42.7 14.11 42.72 11.38 42.69 C10.63 42.69 9.88 42.68 9.1 42.68 C7.26 42.67 5.41 42.65 3.56 42.63 C3.56 46.59 3.56 50.55 3.56 54.63 C4.8 54.58 6.05 54.54 7.32 54.49 C8.97 54.45 10.61 54.41 12.25 54.38 C13.07 54.35 13.88 54.31 14.72 54.28 C18.81 54.21 21.01 54.31 24.61 56.43 C26.56 58.63 26.56 58.63 27.19 62.13 C26.56 65.63 26.56 65.63 24.43 67.81 C21.03 69.97 19.09 70.14 15.09 70.16 C13.25 70.17 13.25 70.17 11.37 70.18 C10.09 70.16 8.81 70.14 7.5 70.13 C5.58 70.15 5.58 70.15 3.62 70.18 C2.4 70.17 1.17 70.17 -0.1 70.16 C-1.22 70.16 -2.34 70.15 -3.49 70.15 C-7.06 69.52 -8.21 68.43 -10.44 65.63 C-11.74 63.02 -11.59 61.07 -11.63 58.16 C-11.65 57.01 -11.66 55.87 -11.68 54.69 C-11.72 49.45 -11.77 44.21 -11.79 38.97 C-11.8 36.21 -11.83 33.44 -11.87 30.68 C-11.93 26.7 -11.95 22.72 -11.96 18.73 C-11.98 17.5 -12.01 16.26 -12.03 14.99 C-12.01 6.51 -12.01 6.51 -9.31 2.35 C-5.92 0.32 -3.93 -0 0 0 Z " fill="#020404" transform="translate(261.4375,399.37109375)"/>
<path d="M0 0 C5.64 0.51 11.06 1.58 16.56 2.89 C17.74 3.17 17.74 3.17 18.95 3.46 C20.61 3.85 22.26 4.25 23.92 4.65 C26.42 5.25 28.94 5.83 31.45 6.41 C47.2 10.14 47.2 10.14 54 15 C55.35 15.95 55.35 15.95 56.73 16.93 C59.52 19.47 61.92 22.23 64.25 25.19 C64.72 25.79 65.19 26.39 65.68 27 C72.1 35.43 81 48.13 81 59 C73.41 59 65.82 59 58 59 C56.89 56.96 55.77 54.92 54.62 52.81 C45.8 37.14 35.2 23.68 17.28 18.62 C12.54 17.34 7.77 16.15 3 15 C2.3 14.82 1.59 14.64 0.86 14.45 C-2.48 13.65 -5.57 13.84 -9 14 C-10.49 14.99 -10.49 14.99 -12 16 C-10.38 12.27 -8.03 9.43 -5.44 6.31 C-4.63 5.34 -3.83 4.37 -3 3.36 C-1 1 -1 1 0 0 Z " fill="#423E42" transform="translate(339,298)"/>
<path d="M0 0 C1.24 -0.01 1.24 -0.01 2.51 -0.02 C4.27 -0.03 6.02 -0.04 7.78 -0.03 C10.46 -0.03 13.14 -0.07 15.82 -0.12 C17.53 -0.12 19.23 -0.13 20.94 -0.12 C21.74 -0.14 22.54 -0.16 23.37 -0.17 C27.31 -0.13 29.13 0.09 32.07 2.81 C33.54 5.47 33.54 5.47 33.6 8.53 C32.22 12.35 31.11 13.53 27.54 15.47 C25.27 15.63 25.27 15.63 22.85 15.57 C22.04 15.56 21.23 15.54 20.4 15.53 C19.78 15.51 19.17 15.49 18.54 15.47 C18.54 16.06 18.55 16.65 18.56 17.26 C18.62 23.41 18.67 29.55 18.7 35.7 C18.72 38 18.74 40.29 18.76 42.58 C18.8 45.88 18.81 49.18 18.83 52.48 C18.84 53.5 18.86 54.53 18.88 55.58 C18.88 64.57 18.88 64.57 15.54 68.47 C12.69 69.89 10.68 69.78 7.54 69.47 C4.98 67.47 3.7 66.27 3.05 63.05 C3.06 62.15 3.07 61.26 3.08 60.33 C3.08 59.31 3.08 58.29 3.08 57.24 C3.1 56.14 3.12 55.05 3.14 53.92 C3.15 52.8 3.16 51.67 3.16 50.51 C3.18 46.91 3.23 43.32 3.29 39.72 C3.31 37.28 3.32 34.84 3.34 32.4 C3.38 26.42 3.45 20.45 3.54 14.47 C2.7 14.52 1.87 14.56 1.02 14.61 C-0.07 14.65 -1.16 14.68 -2.28 14.72 C-3.9 14.79 -3.9 14.79 -5.55 14.86 C-8.46 14.47 -8.46 14.47 -10.33 12.68 C-11.98 9.47 -11.85 7.02 -11.46 3.47 C-8.96 -0.77 -4.38 0 0 0 Z " fill="#030505" transform="translate(404.46484375,399.53125)"/>
<path d="M0 0 C4.09 0.58 4.98 1.32 7.5 4.5 C7.98 6.88 7.98 6.88 7.95 9.54 C7.95 10.54 7.95 11.55 7.95 12.58 C7.93 13.65 7.91 14.72 7.89 15.83 C7.88 16.93 7.88 18.04 7.87 19.17 C7.85 22.7 7.8 26.22 7.75 29.75 C7.73 32.14 7.71 34.53 7.7 36.92 C7.65 42.78 7.58 48.64 7.5 54.5 C8.45 54.45 9.41 54.41 10.39 54.36 C11.64 54.32 12.9 54.29 14.19 54.25 C15.43 54.2 16.67 54.16 17.95 54.11 C22.08 54.56 23.65 55.53 26.5 58.5 C27.12 61.44 27.12 61.44 26.5 64.5 C24.71 67.15 24.71 67.15 21.5 69.5 C17.49 70.25 13.57 70.2 9.5 70.12 C7.88 70.15 7.88 70.15 6.23 70.18 C4.66 70.17 4.66 70.17 3.06 70.16 C1.64 70.16 1.64 70.16 0.19 70.15 C-3.92 69.16 -5.14 68.06 -7.5 64.5 C-8.24 60.01 -8.18 55.57 -8.13 51.03 C-8.13 49.71 -8.13 48.4 -8.14 47.04 C-8.14 44.26 -8.12 41.49 -8.1 38.71 C-8.06 35.15 -8.07 31.6 -8.09 28.04 C-8.1 24.64 -8.08 21.24 -8.07 17.84 C-8.07 16.56 -8.08 15.29 -8.08 13.97 C-8.07 12.79 -8.05 11.6 -8.03 10.38 C-8.02 8.82 -8.02 8.82 -8.01 7.23 C-7.1 2.38 -4.75 0.68 0 0 Z " fill="#010101" transform="translate(163.5,399.5)"/>
<path d="M0 0 C8.5 3.38 8.5 3.38 11.13 4.43 C19.86 7.86 27.34 9.37 36.75 9.31 C37.73 9.31 38.71 9.3 39.71 9.3 C46.87 9.18 53.23 8.44 60 6 C60.67 5.76 61.35 5.52 62.04 5.27 C66.72 3.58 71.37 1.82 76 0 C78.39 18.52 78.39 18.52 74.54 24.12 C71.29 27.27 64.74 33 60 33 C60 28.38 60 23.76 60 19 C58.23 19.5 56.45 19.99 54.62 20.5 C35.38 24.87 18.4 20.8 1 12 C1 15.3 1 18.6 1 22 C0.67 22 0.34 22 0 22 C0 14.74 0 7.48 0 0 Z " fill="#F2A76B" transform="translate(218,256)"/>
<path d="M0 0 C4.08 0.66 5.01 1.35 7.5 4.56 C8.01 7.33 8.01 7.33 8.02 10.55 C8.03 11.76 8.04 12.97 8.06 14.21 C8.05 15.51 8.04 16.82 8.03 18.16 C8.03 19.51 8.04 20.86 8.04 22.21 C8.05 25.04 8.04 27.88 8.02 30.71 C8 34.33 8.01 37.96 8.04 41.58 C8.05 44.37 8.05 47.16 8.04 49.96 C8.03 51.94 8.04 53.93 8.06 55.91 C8.04 57.12 8.03 58.33 8.02 59.57 C8.01 60.63 8.01 61.7 8.01 62.79 C7.37 66.27 6.28 67.45 3.5 69.56 C0 70.12 0 70.12 -3.5 69.56 C-6.06 67.02 -7.36 65.33 -8.01 61.76 C-8.01 60.73 -8.01 59.71 -8.02 58.66 C-8.03 57.49 -8.04 56.33 -8.06 55.13 C-8.05 53.88 -8.04 52.63 -8.03 51.34 C-8.04 50.05 -8.04 48.76 -8.04 47.43 C-8.05 44.71 -8.04 41.98 -8.02 39.25 C-8 35.77 -8.01 32.28 -8.04 28.79 C-8.05 25.46 -8.04 22.12 -8.03 18.78 C-8.04 17.53 -8.05 16.28 -8.06 15 C-8.04 13.83 -8.03 12.67 -8.02 11.47 C-8.01 10.44 -8.01 9.42 -8.01 8.37 C-7.1 3.37 -5.01 0.81 0 0 Z " fill="#040606" transform="translate(219.5,399.4375)"/>
<path d="M0 0 C1.85 0.56 1.85 0.56 3.75 1.12 C4.68 1.41 5.6 1.7 6.56 2 C2.44 7.51 -1.71 13.02 -5.88 18.5 C-6.41 19.21 -6.94 19.92 -7.49 20.64 C-11.28 25.61 -15.27 30.35 -19.44 35 C-23.36 34.4 -26.28 33.2 -29.74 31.28 C-30.71 30.74 -31.69 30.2 -32.7 29.65 C-33.7 29.08 -34.71 28.52 -35.75 27.94 C-36.78 27.37 -37.8 26.8 -38.86 26.22 C-41.39 24.82 -43.92 23.41 -46.44 22 C-43.92 19.4 -41.4 17.12 -38.46 15.01 C-37.71 14.47 -36.96 13.93 -36.19 13.38 C-35.41 12.82 -34.62 12.26 -33.81 11.69 C-33.01 11.11 -32.2 10.54 -31.37 9.95 C-29.77 8.81 -28.18 7.68 -26.58 6.54 C-24.79 5.26 -23.03 3.93 -21.28 2.59 C-20.44 1.96 -19.61 1.34 -18.75 0.69 C-18.07 0.16 -17.38 -0.38 -16.68 -0.93 C-11.19 -3.56 -5.53 -1.69 0 0 Z " fill="#E1DDE1" transform="translate(316.4375,292)"/>
<path d="M0 0 C1.4 1.09 2.8 2.19 4.2 3.28 C4.89 3.82 5.58 4.36 6.29 4.93 C8.17 6.39 10.08 7.8 12.02 9.19 C12.58 9.59 13.14 10 13.71 10.41 C15.22 11.5 16.74 12.58 18.25 13.66 C18.93 14.27 19.61 14.87 20.31 15.5 C20.31 16.49 20.31 17.48 20.31 18.5 C16.74 20.54 13.15 22.55 9.56 24.56 C8.55 25.14 7.53 25.72 6.48 26.32 C5.5 26.87 4.53 27.41 3.52 27.97 C2.16 28.73 2.16 28.73 0.79 29.51 C-1.69 30.5 -1.69 30.5 -3.88 30.29 C-6.75 29.03 -8.17 26.92 -10.12 24.5 C-10.54 23.98 -10.96 23.47 -11.4 22.93 C-25.05 5.96 -25.05 5.96 -30.69 -2.5 C-27.09 -3.82 -23.48 -4.85 -19.75 -5.69 C-18.96 -5.87 -18.16 -6.05 -17.35 -6.23 C-9.78 -7 -5.64 -4.54 0 0 Z " fill="#E1DDE1" transform="translate(219.6875,296.5)"/>
<path d="M0 0 C0.99 0.66 1.98 1.32 3 2 C5.61 2.32 5.61 2.32 8.44 2.25 C9.38 2.26 10.33 2.26 11.31 2.27 C14.06 1.99 15.58 1.25 18 0 C21.38 0.18 23.99 0.41 26.94 2.12 C28.67 5.18 28.42 7.57 28 11 C25.52 14.88 21.88 16.19 17.62 17.46 C9.57 19.12 1.43 18.65 -6 15 C-8.56 13.25 -8.56 13.25 -10 11 C-10.56 7.5 -10.56 7.5 -10 4 C-6.93 0.58 -4.59 -0.72 0 0 Z " fill="#050403" transform="translate(247,205)"/>
<path d="M0 0 C0.5 18.31 0.5 18.31 1 37 C-5.18 35.76 -8.84 34.01 -12.56 28.83 C-16.02 22.67 -17.16 17 -16 10 C-13.79 4.93 -10.8 2.97 -6 0.66 C-4 0 -4 0 0 0 Z " fill="#ECA267" transform="translate(154,142)"/>
<path d="M0 0 C7 1 10.21 1.93 14.88 7.06 C17.35 13.53 16.81 20.01 14.06 26.31 C11.22 31.41 7.28 34.57 2 37 C1.01 37 0.02 37 -1 37 C-0.67 24.79 -0.34 12.58 0 0 Z " fill="#ECA268" transform="translate(358,142)"/>
<path d="M0 0 C1.24 0.37 2.47 0.74 3.75 1.12 C4.68 1.41 5.6 1.7 6.56 2 C5.65 3.25 4.73 4.5 3.81 5.75 C3.3 6.45 2.79 7.14 2.27 7.86 C-1.16 12.16 -1.16 12.16 -3.44 14 C-6.19 14 -6.19 14 -9.3 13.3 C-10.41 13.06 -11.53 12.82 -12.68 12.57 C-14.41 12.17 -14.41 12.17 -16.19 11.75 C-17.95 11.37 -17.95 11.37 -19.75 10.97 C-22.65 10.34 -25.54 9.68 -28.44 9 C-25.47 5.94 -22.56 3.13 -19.06 0.69 C-18.35 0.18 -17.64 -0.34 -16.91 -0.86 C-11.23 -3.47 -5.72 -1.74 0 0 Z " fill="#D2CBD1" transform="translate(316.4375,292)"/>
<path d="M0 0 C2.74 2.67 3.89 4.37 4.57 8.16 C4.56 17.13 4.56 17.13 1.88 21.31 C-1.51 23.3 -3.14 23.74 -7 23 C-9.15 21.43 -9.15 21.43 -11 19 C-11.53 15.47 -11.53 15.47 -11.5 11.5 C-11.52 9.54 -11.52 9.54 -11.53 7.53 C-11 4 -11 4 -9.19 1.57 C-5.96 -0.74 -3.86 -0.62 0 0 Z " fill="#080605" transform="translate(300,153)"/>
<path d="M0 0 C4.11 0.66 5.05 1.27 7.5 4.56 C8.03 8.09 8.03 8.09 8 12.06 C8.01 13.37 8.02 14.68 8.03 16.03 C7.5 19.56 7.5 19.56 5.65 22 C3.5 23.56 3.5 23.56 0.56 24.12 C-2.5 23.56 -2.5 23.56 -5.38 21.88 C-8.63 16.81 -8.55 11.42 -7.5 5.56 C-4.43 0.71 -4.43 0.71 0 0 Z " fill="#080605" transform="translate(215.5,152.4375)"/>
</svg>
